<mxfile host="app.diagrams.net" modified="2021-12-06T09:50:48.524Z" agent="5.0 (Windows NT 10.0; Win64; x64) AppleWebKit/537.36 (KHTML, like Gecko) Chrome/96.0.4664.55 Safari/537.36 Edg/96.0.1054.41" etag="O8WEqmpCJT8vibc22bmp" version="15.8.6" type="github">
  <diagram id="taAXaBVE9fwZtH47WA-f" name="Page-1">
    <mxGraphModel dx="1578" dy="603" grid="0" gridSize="10" guides="1" tooltips="1" connect="1" arrows="1" fold="1" page="0" pageScale="1" pageWidth="827" pageHeight="1169" math="0" shadow="0">
      <root>
        <mxCell id="0" />
        <mxCell id="1" parent="0" />
        <mxCell id="PoxByQgQvSBvYP_2PhtO-3" value="正常使用状态" style="rounded=1;whiteSpace=wrap;html=1;fontSize=14;" vertex="1" parent="1">
          <mxGeometry x="-10" y="263" width="90" height="40" as="geometry" />
        </mxCell>
        <mxCell id="PoxByQgQvSBvYP_2PhtO-6" value="" style="endArrow=classic;html=1;rounded=0;entryX=0;entryY=0.5;entryDx=0;entryDy=0;exitX=1;exitY=0.5;exitDx=0;exitDy=0;" edge="1" parent="1" source="PoxByQgQvSBvYP_2PhtO-3">
          <mxGeometry width="50" height="50" relative="1" as="geometry">
            <mxPoint x="60" y="368" as="sourcePoint" />
            <mxPoint x="130" y="283" as="targetPoint" />
          </mxGeometry>
        </mxCell>
        <mxCell id="PoxByQgQvSBvYP_2PhtO-7" value="传感器数值收集判定" style="rounded=0;whiteSpace=wrap;html=1;fontSize=14;" vertex="1" parent="1">
          <mxGeometry x="130" y="253" width="120" height="60" as="geometry" />
        </mxCell>
        <mxCell id="PoxByQgQvSBvYP_2PhtO-25" value="" style="edgeStyle=orthogonalEdgeStyle;rounded=0;orthogonalLoop=1;jettySize=auto;html=1;" edge="1" parent="1" source="PoxByQgQvSBvYP_2PhtO-8" target="PoxByQgQvSBvYP_2PhtO-15">
          <mxGeometry relative="1" as="geometry" />
        </mxCell>
        <mxCell id="PoxByQgQvSBvYP_2PhtO-8" value="是否锁屏场景" style="rhombus;whiteSpace=wrap;html=1;fontSize=14;" vertex="1" parent="1">
          <mxGeometry x="272" y="258" width="120" height="50" as="geometry" />
        </mxCell>
        <mxCell id="PoxByQgQvSBvYP_2PhtO-9" value="" style="endArrow=classic;html=1;rounded=0;entryX=0;entryY=0.5;entryDx=0;entryDy=0;exitX=1;exitY=0.5;exitDx=0;exitDy=0;" edge="1" parent="1" source="PoxByQgQvSBvYP_2PhtO-7" target="PoxByQgQvSBvYP_2PhtO-8">
          <mxGeometry width="50" height="50" relative="1" as="geometry">
            <mxPoint x="200" y="213" as="sourcePoint" />
            <mxPoint x="250" y="163" as="targetPoint" />
          </mxGeometry>
        </mxCell>
        <mxCell id="PoxByQgQvSBvYP_2PhtO-10" value="" style="endArrow=classic;html=1;rounded=0;exitX=0.5;exitY=0;exitDx=0;exitDy=0;entryX=0.5;entryY=0;entryDx=0;entryDy=0;" edge="1" parent="1" source="PoxByQgQvSBvYP_2PhtO-8" target="PoxByQgQvSBvYP_2PhtO-7">
          <mxGeometry width="50" height="50" relative="1" as="geometry">
            <mxPoint x="200" y="213" as="sourcePoint" />
            <mxPoint x="90" y="203" as="targetPoint" />
            <Array as="points">
              <mxPoint x="332" y="203" />
              <mxPoint x="190" y="203" />
            </Array>
          </mxGeometry>
        </mxCell>
        <mxCell id="PoxByQgQvSBvYP_2PhtO-11" value="否" style="edgeLabel;html=1;align=center;verticalAlign=middle;resizable=0;points=[];" vertex="1" connectable="0" parent="PoxByQgQvSBvYP_2PhtO-10">
          <mxGeometry x="-0.2226" relative="1" as="geometry">
            <mxPoint as="offset" />
          </mxGeometry>
        </mxCell>
        <mxCell id="PoxByQgQvSBvYP_2PhtO-23" value="" style="edgeStyle=orthogonalEdgeStyle;rounded=0;orthogonalLoop=1;jettySize=auto;html=1;" edge="1" parent="1" source="PoxByQgQvSBvYP_2PhtO-15">
          <mxGeometry relative="1" as="geometry">
            <mxPoint x="654" y="283" as="targetPoint" />
            <Array as="points">
              <mxPoint x="632" y="283" />
              <mxPoint x="632" y="283" />
            </Array>
          </mxGeometry>
        </mxCell>
        <mxCell id="PoxByQgQvSBvYP_2PhtO-34" value="否" style="edgeLabel;html=1;align=center;verticalAlign=middle;resizable=0;points=[];" vertex="1" connectable="0" parent="PoxByQgQvSBvYP_2PhtO-23">
          <mxGeometry x="-0.1585" y="2" relative="1" as="geometry">
            <mxPoint as="offset" />
          </mxGeometry>
        </mxCell>
        <mxCell id="PoxByQgQvSBvYP_2PhtO-15" value="是否处于电话、视频等场景" style="rhombus;whiteSpace=wrap;html=1;fontSize=14;" vertex="1" parent="1">
          <mxGeometry x="438" y="248" width="180" height="70" as="geometry" />
        </mxCell>
        <mxCell id="PoxByQgQvSBvYP_2PhtO-32" value="" style="endArrow=classic;html=1;rounded=0;entryX=0.5;entryY=1;entryDx=0;entryDy=0;exitX=0.5;exitY=1;exitDx=0;exitDy=0;" edge="1" parent="1" source="PoxByQgQvSBvYP_2PhtO-15" target="PoxByQgQvSBvYP_2PhtO-7">
          <mxGeometry width="50" height="50" relative="1" as="geometry">
            <mxPoint x="502" y="437" as="sourcePoint" />
            <mxPoint x="422" y="383" as="targetPoint" />
            <Array as="points">
              <mxPoint x="529" y="388" />
              <mxPoint x="190" y="388" />
            </Array>
          </mxGeometry>
        </mxCell>
        <mxCell id="PoxByQgQvSBvYP_2PhtO-33" value="是" style="edgeLabel;html=1;align=center;verticalAlign=middle;resizable=0;points=[];" vertex="1" connectable="0" parent="PoxByQgQvSBvYP_2PhtO-32">
          <mxGeometry x="-0.0537" y="-1" relative="1" as="geometry">
            <mxPoint as="offset" />
          </mxGeometry>
        </mxCell>
        <mxCell id="PoxByQgQvSBvYP_2PhtO-44" value="" style="edgeStyle=orthogonalEdgeStyle;rounded=0;orthogonalLoop=1;jettySize=auto;html=1;" edge="1" parent="1" source="PoxByQgQvSBvYP_2PhtO-40" target="PoxByQgQvSBvYP_2PhtO-43">
          <mxGeometry relative="1" as="geometry" />
        </mxCell>
        <mxCell id="PoxByQgQvSBvYP_2PhtO-45" value="是" style="edgeLabel;html=1;align=center;verticalAlign=middle;resizable=0;points=[];" vertex="1" connectable="0" parent="PoxByQgQvSBvYP_2PhtO-44">
          <mxGeometry x="0.2166" y="2" relative="1" as="geometry">
            <mxPoint as="offset" />
          </mxGeometry>
        </mxCell>
        <mxCell id="PoxByQgQvSBvYP_2PhtO-40" value="&lt;span style=&quot;font-size: 14px;&quot;&gt;短时间内无其他唤醒操作&lt;/span&gt;" style="rhombus;whiteSpace=wrap;html=1;fontSize=14;" vertex="1" parent="1">
          <mxGeometry x="652" y="249.5" width="174" height="67" as="geometry" />
        </mxCell>
        <mxCell id="PoxByQgQvSBvYP_2PhtO-41" value="" style="endArrow=classic;html=1;rounded=0;exitX=0.5;exitY=0;exitDx=0;exitDy=0;" edge="1" parent="1" source="PoxByQgQvSBvYP_2PhtO-40">
          <mxGeometry width="50" height="50" relative="1" as="geometry">
            <mxPoint x="434" y="447" as="sourcePoint" />
            <mxPoint x="189" y="255" as="targetPoint" />
            <Array as="points">
              <mxPoint x="739" y="208" />
              <mxPoint x="189" y="203" />
            </Array>
          </mxGeometry>
        </mxCell>
        <mxCell id="PoxByQgQvSBvYP_2PhtO-42" value="否" style="edgeLabel;html=1;align=center;verticalAlign=middle;resizable=0;points=[];" vertex="1" connectable="0" parent="PoxByQgQvSBvYP_2PhtO-41">
          <mxGeometry x="-0.1975" y="-1" relative="1" as="geometry">
            <mxPoint as="offset" />
          </mxGeometry>
        </mxCell>
        <mxCell id="PoxByQgQvSBvYP_2PhtO-43" value="自动锁屏" style="whiteSpace=wrap;html=1;" vertex="1" parent="1">
          <mxGeometry x="688.75" y="372" width="100.5" height="41" as="geometry" />
        </mxCell>
        <mxCell id="PoxByQgQvSBvYP_2PhtO-46" value="" style="rounded=0;whiteSpace=wrap;html=1;fontSize=14;" vertex="1" parent="1">
          <mxGeometry x="142" y="803" width="528" height="448" as="geometry" />
        </mxCell>
        <mxCell id="PoxByQgQvSBvYP_2PhtO-47" value="桌面A" style="rounded=1;whiteSpace=wrap;html=1;fontSize=14;" vertex="1" parent="1">
          <mxGeometry x="165.5" y="1025" width="120" height="60" as="geometry" />
        </mxCell>
        <mxCell id="PoxByQgQvSBvYP_2PhtO-48" value="桌面B" style="rounded=1;whiteSpace=wrap;html=1;fontSize=14;" vertex="1" parent="1">
          <mxGeometry x="353" y="1028" width="120" height="60" as="geometry" />
        </mxCell>
        <mxCell id="PoxByQgQvSBvYP_2PhtO-49" value="桌面C" style="rounded=1;whiteSpace=wrap;html=1;fontSize=14;" vertex="1" parent="1">
          <mxGeometry x="530" y="1025" width="120" height="60" as="geometry" />
        </mxCell>
        <mxCell id="PoxByQgQvSBvYP_2PhtO-50" value="" style="endArrow=none;dashed=1;html=1;dashPattern=1 3;strokeWidth=2;rounded=0;fontSize=14;entryX=0.303;entryY=0.004;entryDx=0;entryDy=0;entryPerimeter=0;exitX=0.333;exitY=1.008;exitDx=0;exitDy=0;exitPerimeter=0;" edge="1" parent="1" source="PoxByQgQvSBvYP_2PhtO-46">
          <mxGeometry width="50" height="50" relative="1" as="geometry">
            <mxPoint x="320" y="1144" as="sourcePoint" />
            <mxPoint x="319.98400000000015" y="804.3519999999999" as="targetPoint" />
          </mxGeometry>
        </mxCell>
        <mxCell id="PoxByQgQvSBvYP_2PhtO-51" value="" style="endArrow=none;dashed=1;html=1;dashPattern=1 3;strokeWidth=2;rounded=0;fontSize=14;entryX=0.303;entryY=0.004;entryDx=0;entryDy=0;entryPerimeter=0;exitX=0.704;exitY=1.008;exitDx=0;exitDy=0;exitPerimeter=0;" edge="1" parent="1" source="PoxByQgQvSBvYP_2PhtO-46">
          <mxGeometry width="50" height="50" relative="1" as="geometry">
            <mxPoint x="513" y="1246" as="sourcePoint" />
            <mxPoint x="513.0040000000004" y="803.0019999999998" as="targetPoint" />
          </mxGeometry>
        </mxCell>
        <mxCell id="PoxByQgQvSBvYP_2PhtO-52" value="不同解锁等级" style="rounded=1;whiteSpace=wrap;html=1;fontSize=14;" vertex="1" parent="1">
          <mxGeometry x="353" y="924" width="120" height="60" as="geometry" />
        </mxCell>
        <mxCell id="PoxByQgQvSBvYP_2PhtO-53" value="" style="endArrow=classic;html=1;rounded=0;fontSize=14;exitX=0.5;exitY=1;exitDx=0;exitDy=0;entryX=0.5;entryY=0;entryDx=0;entryDy=0;" edge="1" parent="1" source="PoxByQgQvSBvYP_2PhtO-52" target="PoxByQgQvSBvYP_2PhtO-47">
          <mxGeometry width="50" height="50" relative="1" as="geometry">
            <mxPoint x="333" y="1040" as="sourcePoint" />
            <mxPoint x="383" y="990" as="targetPoint" />
          </mxGeometry>
        </mxCell>
        <mxCell id="PoxByQgQvSBvYP_2PhtO-54" value="" style="endArrow=classic;html=1;rounded=0;fontSize=14;exitX=0.5;exitY=1;exitDx=0;exitDy=0;" edge="1" parent="1" source="PoxByQgQvSBvYP_2PhtO-52" target="PoxByQgQvSBvYP_2PhtO-48">
          <mxGeometry width="50" height="50" relative="1" as="geometry">
            <mxPoint x="423" y="888" as="sourcePoint" />
            <mxPoint x="242" y="941" as="targetPoint" />
          </mxGeometry>
        </mxCell>
        <mxCell id="PoxByQgQvSBvYP_2PhtO-55" value="" style="endArrow=classic;html=1;rounded=0;fontSize=14;exitX=0.5;exitY=1;exitDx=0;exitDy=0;entryX=0.5;entryY=0;entryDx=0;entryDy=0;" edge="1" parent="1" source="PoxByQgQvSBvYP_2PhtO-52" target="PoxByQgQvSBvYP_2PhtO-49">
          <mxGeometry width="50" height="50" relative="1" as="geometry">
            <mxPoint x="423" y="888" as="sourcePoint" />
            <mxPoint x="423" y="941" as="targetPoint" />
          </mxGeometry>
        </mxCell>
        <mxCell id="PoxByQgQvSBvYP_2PhtO-56" value="app3" style="ellipse;whiteSpace=wrap;html=1;aspect=fixed;fontSize=14;" vertex="1" parent="1">
          <mxGeometry x="387" y="1132" width="31" height="31" as="geometry" />
        </mxCell>
        <mxCell id="PoxByQgQvSBvYP_2PhtO-57" value="app1" style="ellipse;whiteSpace=wrap;html=1;aspect=fixed;fontSize=14;" vertex="1" parent="1">
          <mxGeometry x="181" y="1177" width="31" height="31" as="geometry" />
        </mxCell>
        <mxCell id="PoxByQgQvSBvYP_2PhtO-58" value="app3" style="ellipse;whiteSpace=wrap;html=1;aspect=fixed;fontSize=14;" vertex="1" parent="1">
          <mxGeometry x="152" y="1128" width="31" height="31" as="geometry" />
        </mxCell>
        <mxCell id="PoxByQgQvSBvYP_2PhtO-59" value="app4" style="ellipse;whiteSpace=wrap;html=1;aspect=fixed;fontSize=14;" vertex="1" parent="1">
          <mxGeometry x="241" y="1153" width="31" height="31" as="geometry" />
        </mxCell>
        <mxCell id="PoxByQgQvSBvYP_2PhtO-60" value="app2" style="ellipse;whiteSpace=wrap;html=1;aspect=fixed;fontSize=14;" vertex="1" parent="1">
          <mxGeometry x="210" y="1109" width="31" height="31" as="geometry" />
        </mxCell>
        <mxCell id="PoxByQgQvSBvYP_2PhtO-64" value="app2" style="ellipse;whiteSpace=wrap;html=1;aspect=fixed;fontSize=14;" vertex="1" parent="1">
          <mxGeometry x="346" y="1187" width="31" height="31" as="geometry" />
        </mxCell>
        <mxCell id="PoxByQgQvSBvYP_2PhtO-65" value="app4" style="ellipse;whiteSpace=wrap;html=1;aspect=fixed;fontSize=14;" vertex="1" parent="1">
          <mxGeometry x="418" y="1187" width="31" height="31" as="geometry" />
        </mxCell>
        <mxCell id="PoxByQgQvSBvYP_2PhtO-66" value="app3" style="ellipse;whiteSpace=wrap;html=1;aspect=fixed;fontSize=14;" vertex="1" parent="1">
          <mxGeometry x="582" y="1170" width="31" height="31" as="geometry" />
        </mxCell>
        <mxCell id="PoxByQgQvSBvYP_2PhtO-71" value="" style="edgeStyle=orthogonalEdgeStyle;rounded=0;orthogonalLoop=1;jettySize=auto;html=1;fontSize=14;" edge="1" parent="1" source="PoxByQgQvSBvYP_2PhtO-70" target="PoxByQgQvSBvYP_2PhtO-52">
          <mxGeometry relative="1" as="geometry" />
        </mxCell>
        <mxCell id="PoxByQgQvSBvYP_2PhtO-70" value="Android手机" style="rounded=1;whiteSpace=wrap;html=1;fontSize=14;" vertex="1" parent="1">
          <mxGeometry x="204" y="820" width="419" height="60" as="geometry" />
        </mxCell>
      </root>
    </mxGraphModel>
  </diagram>
</mxfile>
